<svg xmlns="http://www.w3.org/2000/svg" viewBox="0 0 163.9 211.4"><path fill="#A6A6A6" stroke="#E6E6E6" stroke-width="2.824" stroke-miterlimit="10" d="M116.7 55.5l5.4-21.8s-17.5 4.4-22.3-5c-4.7-9.2 1.7-21.7 17.9-20.5 22.8 1.6 16.7 22.2 16.7 22.2l-2.3 14.4c-3.2 19.6-2.1 26.8-.5 44.6.1 2 1.6 17.9 1.9 19.9l6.1 53.9c0 5.2-2.3 5.9-5.1 5.9h-15.4c-2.8 0-5.1-2.3-5.1-5.1V96.5c0-2.8-2.3-5.1-5.1-5.1h-26V68.9h26.7c2.8 0 5.1.5 5.1-2.3l2-11.1z"/><path fill="#707070" stroke="#E6E6E6" stroke-width="2.824" stroke-miterlimit="10" d="M47.2 55.5l-5.4-21.8s17.5 4.4 22.3-5C68.8 19.5 62.4 7 46.2 8.1 23.4 9.8 29.5 30.4 29.5 30.4l2.3 14.4c3.2 19.6 2.1 26.8.5 44.6-.1 2-1.6 17.9-1.9 19.9l-6.1 53.9c0 5.2 2.3 5.9 5.1 5.9h15.4c2.8 0 5.1-2.3 5.1-5.1V96.5c0-2.8 2.3-5.1 5.1-5.1h27.9V68.9H54.2c-2.8 0-5.1.5-5.1-2.3l-1.9-11.1z"/><g fill="#FFF" stroke="#E6E7E8" stroke-width=".788" stroke-miterlimit="10"><ellipse cx="82.8" cy="87.3" rx="5.4" ry="2"/><ellipse cx="82.8" cy="72.8" rx="5.4" ry="2"/><ellipse cx="82.8" cy="77.6" rx="5.4" ry="2"/><ellipse cx="82.8" cy="82.5" rx="5.4" ry="2"/></g><g stroke="#E6E6E6" stroke-width=".622" stroke-miterlimit="10"><path fill="#707070" d="M38.2 187.4c0-2.4.1-5.1.2-8.1 0-1 .1-1.6.1-1.8 0-1.1-.5-1.7-1.5-1.7-.5 0-.9 0-1.3.1.1 2.3.2 5.5.2 9.7v2.2c-1 .1-2.6.1-4.9.1-2.3 0-3.9 0-4.9-.1 0-2.6.1-5.5.2-8.7 0-1 .1-1.6.1-1.8 0-1.1-.5-1.7-1.5-1.7-.5 0-.9 0-1.3.1.1 2.7.2 6.1.2 10.2v8.8l-.1 7.8c0 .9.1 1.6.3 1.9.2.4.6.6 1.2.6s1.1-.1 1.4-.4c-.4-1.9-.6-4.8-.6-8.7v-5.7c1 .1 2.6.1 4.9.1 2.3 0 3.9 0 5-.1v4.5l-.1 7.8c0 .9.1 1.6.3 1.9.2.4.6.6 1.2.6s1.1-.1 1.4-.4c-.4-1.9-.6-4.8-.6-8.7v-8.5zM49.3 178.3c-.2-1.1-.4-1.7-.6-2-.2-.3-.6-.4-1-.4-.5 0-.9 0-1.3.1-1.1 5.6-3.2 13.4-6.1 23.3-.9 2.9-1.3 4.6-1.3 5 0 .4.1.7.4 1 .3.3.8.5 1.4.7.3-1.8 1.2-5.2 2.6-10.1 2.1.1 3.3.1 3.8.1s1.9 0 4.2-.1c1 4.2 1.7 7 2.1 8.5.2.8.7 1.2 1.3 1.2.4 0 .9-.3 1.5-.9-.7-1.9-1.7-5.3-3-10.2-1.4-4.8-2.7-10.2-4-16.2zm-1.2 15.2c-1.1 0-2.4 0-4-.1.6-2 1.2-4.5 2-7.6.8-3.1 1.2-5 1.4-5.6 1.4 6.2 2.5 10.7 3.2 13.3h-2.6z"/><path fill="#707070" d="M68.6 202.8c-.8 0-1.4-.4-2-1.3-.4-.6-.9-1.6-1.4-3-.3-.8-.5-1.4-.6-1.7-.1-.4-.4-1.1-.7-2.1-.4-1.1-.5-1.6-.5-1.6 1.5-.4 2.7-1.4 3.7-2.8.9-1.5 1.4-3.4 1.4-5.8 0-5.8-2.8-8.8-8.3-8.8-1.5 0-3.1.2-4.6.5.3 2.7.4 6.1.4 10.1v8.8l-.1 7.8c0 .9.1 1.6.3 1.9s.6.6 1.2.6 1.1-.1 1.4-.4c-.4-1.9-.6-4.8-.6-8.7v-8.9c0-4.3 0-7.3-.1-9 .9-.1 1.7-.2 2.4-.2 1.8 0 3.1.5 4 1.4.9.9 1.3 2.5 1.3 4.7s-.4 3.8-1.2 5c-.8 1.2-1.9 1.7-3.2 1.7-.4 0-.9-.1-1.4-.2-.1.5-.2.9-.2 1.2 0 .5.3.9.9 1 .1.2.3.9.7 2.1.4 1.2.7 2.1.8 2.5.2.5.4 1.2.8 2.3.4 1.1.7 1.8 1 2.3.3.5.6 1.1 1 1.7.7 1.2 1.5 1.8 2.3 1.8 1.5 0 2.3-.6 2.3-1.7 0-.4-.1-.8-.3-1.3-.2 0-.5.1-.7.1z"/><path fill="#A6A6A6" d="M80 201.2v-.2 4.3h.3c.3 0 .6-.1.8-.2.8-4.1 1.6-7.8 2.4-11.1h-2.1c-.5 2.5-1 4.9-1.4 7.2zM87.3 194.1v9.3c0 .6.1 1 .3 1.4s.6.6 1.2.6 1.1-.1 1.4-.4c-.4-1.9-.6-4.8-.6-8.7v-2.2h-2.3z"/><path fill="#707070" d="M89.6 186c0-4.8.2-8.1.6-9.8-.5-.2-1-.4-1.7-.4-.9 0-1.7.7-2.2 2.1-1.3 3.4-2.5 7.2-3.6 11.4-.4 1.6-.8 3.2-1.1 4.7h2.1c1.3-5.6 2.6-10 3.8-13.5V194h2.3v-8zM78.7 204.1c.2.7.6 1 1.2 1.1v-4.3c-.6-2.8-1.1-5.1-1.6-6.9H76c1.4 5.2 2.2 8.6 2.7 10.1zM70.3 195l-.1 7.8c0 .9.1 1.6.3 1.9.2.4.6.6 1 .6s.9-.1 1.3-.4c-.4-1.9-.6-4.8-.6-8.7V194h-2v1z"/><path fill="#A6A6A6" d="M76.1 185.2c-.8-2.9-1.6-5.3-2.4-7.3-.6-1.4-1.3-2.1-2.2-2.1-.5 0-1.1.1-1.8.4.4 1.9.6 4.5.6 7.8v10.1h2v-13.4c1.1 3.1 2.3 7.4 3.6 12.9 0 .2.1.3.1.5h2.3c-.1-.6-.2-1.1-.4-1.5-.3-2.1-1-4.5-1.8-7.4zM110.5 190.6c0 4.6-.9 8.2-2.6 11-1.7 2.7-4 4.1-6.9 4.1-2.9 0-5.2-1.4-6.9-4.1-1.7-2.7-2.6-6.4-2.6-11s.9-8.2 2.6-11c1.7-2.7 4-4.1 6.9-4.1 2.9 0 5.2 1.4 6.9 4.1 1.7 2.7 2.6 6.4 2.6 11zm-4.1-8.1c-.5-1.3-1.2-2.3-2.2-3.1-.9-.8-2-1.2-3.2-1.2-2.1 0-3.8 1-5.1 3.1-1.3 2.1-1.9 4.7-1.9 7.9 0 3.5.5 6.6 1.5 9.3.5 1.4 1.2 2.4 2.1 3.2.9.8 2 1.2 3.2 1.2 2.2 0 3.9-1.1 5.1-3.2 1.2-2.1 1.8-4.9 1.8-8.3.2-3.3-.3-6.3-1.3-8.9zM124.8 200c-.1-2.1-.2-5.8-.2-11.1v-2.6c0-4.1-.1-7.6-.2-10.2.3-.1.7-.1 1-.1 1 0 1.5.6 1.5 1.7 0 .2 0 .8-.1 1.8-.1 3.1-.2 5.8-.2 8.1v7.5c0 4.1.1 7.6.2 10.2-.3.1-.7.2-1 .2-.7 0-1.2-.4-1.6-1.2-.8-1.9-2.3-5.4-4.4-10.6-2.1-5.2-3.9-9.5-5.3-12.6v15.4c0 4 .2 6.9.6 8.7-.4.2-.8.4-1.3.4s-.8-.2-1-.6c-.2-.4-.3-1-.3-1.9l.1-7.8v-8.8c0-4.9-.2-8.3-.6-10.1.4-.2.8-.4 1.3-.4s.9.1 1.1.3c.9.8 2.5 3.8 4.7 9.2 2.1 5.2 4.1 10.1 5.7 14.5zM142.3 177.6c0 .7-.8 2.8-2.3 6.2-1.6 3.4-2.9 6.1-4.1 8.1v3.7c0 4.3.2 7.4.6 9.3-.4.2-.9.4-1.4.4-.6 0-1-.2-1.2-.6-.2-.4-.3-1-.3-1.9 0-2.7 0-5.3.1-7.8v-2.7c-3-8-5.3-12.8-6.8-14.3.3-.6.5-1 .7-1.1.1-.2.3-.4.4-.5.2-.3.5-.4.8-.4.5 0 1 .5 1.5 1.5 1.2 2.6 2.9 6.6 4.9 12 1-1.9 2-4.3 3.2-7.4 1.1-3.1 1.7-5.2 1.7-6.3 1.5-.1 2.2.6 2.2 1.8z"/></g></svg>