<svg xmlns="http://www.w3.org/2000/svg" viewBox="0 0 163.9 211.4"><path fill="#A6A6A6" stroke="#E6E6E6" stroke-width="3.5848" stroke-miterlimit="10" d="M126.5 64.2l6.9-27.7s-22.3 5.6-28.4-6.3c-6-11.7 2.2-27.6 22.7-26.1 29 2.1 21.2 28.2 21.2 28.2L146 50.6c-4.1 24.8-2.6 34-.6 56.6.1 2.6 2.1 22.7 2.4 25.3l7.7 68.4c0 6.6-2.9 7.5-6.5 7.5h-19.6c-3.6 0-6.5-2.9-6.5-6.5v-85.6c0-3.6-2.9-6.5-6.5-6.5H83.6V81.2h33.9c3.6 0 6.5.7 6.5-2.9l2.5-14.1z"/><path fill="#707070" stroke="#E6E6E6" stroke-width="3.5848" stroke-miterlimit="10" d="M38.3 64.2l-6.9-27.7s22.3 5.6 28.4-6.3c6-11.7-2.2-27.6-22.7-26.1C8 6.2 15.8 32.3 15.8 32.3l2.9 18.3c4.1 24.8 2.6 34 .6 56.6-.1 2.6-2.1 22.7-2.4 25.3l-7.7 68.4c0 6.6 2.9 7.5 6.5 7.5h19.6c3.6 0 6.5-2.9 6.5-6.5v-85.6c0-3.6 2.9-6.5 6.5-6.5h35.4V81.2H47.3c-3.6 0-6.5.7-6.5-2.9l-2.5-14.1z"/><g fill="#FFF" stroke="#E6E7E8" stroke-miterlimit="10"><ellipse cx="83.4" cy="104.6" rx="6.8" ry="2.5"/><ellipse cx="83.4" cy="86.1" rx="6.8" ry="2.5"/><ellipse cx="83.4" cy="92.3" rx="6.8" ry="2.5"/><ellipse cx="83.4" cy="98.4" rx="6.8" ry="2.5"/></g></svg>