<svg xmlns="http://www.w3.org/2000/svg" viewBox="0 0 349.1 102.7"><path fill="#A6A6A6" stroke="#E6E6E6" stroke-width="1.652" stroke-miterlimit="10" d="M60 32.1l3.2-12.8s-10.3 2.6-13.1-2.9c-2.7-5.4 1-12.7 10.5-12 13.4 1 9.8 13 9.8 13L69 25.8c-1.9 11.4-1.2 15.7-.3 26.1 0 1.2 1 10.5 1.1 11.6L73.3 95c0 3-1.3 3.5-3 3.5h-9c-1.7 0-3-1.3-3-3V56c0-1.7-1.3-3-3-3H40.2V39.8h15.6c1.7 0 3 .3 3-1.3l1.2-6.4z"/><path fill="#707070" stroke="#E6E6E6" stroke-width="1.652" stroke-miterlimit="10" d="M19.3 32.1l-3.2-12.8s10.3 2.6 13.1-2.9c2.7-5.4-1-12.7-10.5-12-13.4 1-9.8 13-9.8 13l1.3 8.4c1.9 11.4 1.2 15.7.3 26.1 0 1.2-1 10.5-1.1 11.6L5.9 95c0 3 1.3 3.5 3 3.5h9c1.7 0 3-1.3 3-3V56c0-1.7 1.3-3 3-3h16.3V39.8H23.4c-1.7 0-3 .3-3-1.3l-1.1-6.4z"/><g fill="#FFF" stroke="#E6E7E8" stroke-width=".461" stroke-miterlimit="10"><ellipse cx="40.1" cy="50.6" rx="3.2" ry="1.1"/><ellipse cx="40.1" cy="42.1" rx="3.2" ry="1.1"/><ellipse cx="40.1" cy="45" rx="3.2" ry="1.1"/><ellipse cx="40.1" cy="47.8" rx="3.2" ry="1.1"/></g><g stroke="#E6E6E6" stroke-width="1.583" stroke-miterlimit="10"><path fill="#707070" d="M105.5 24.9c-.6-2.7-1.1-4.4-1.6-5-.5-.6-1.4-1-2.7-1-1.3 0-2.4.1-3.4.3-2.9 14.2-8.1 34-15.6 59.3-2.2 7.5-3.4 11.7-3.4 12.7s.4 1.9 1.1 2.5c.7.7 1.9 1.3 3.6 1.8.9-4.6 3.1-13.2 6.6-25.8 5.2.2 8.5.2 9.7.2 1.3 0 4.8-.1 10.7-.2 2.6 10.7 4.4 17.9 5.4 21.5.6 2 1.7 3 3.4 3 1 0 2.3-.7 3.8-2.2-1.8-4.9-4.3-13.6-7.6-26-3.4-12.1-6.7-25.9-10-41.1zm-3.1 38.6c-2.8 0-6.2-.1-10.3-.2 1.5-5.1 3.2-11.6 5.1-19.4 1.9-7.9 3.1-12.6 3.6-14.4 3.6 15.9 6.3 27.1 8.1 33.8-1.6.1-3.8.2-6.5.2z"/><path fill="#707070" d="M154.5 87.2c-2 0-3.7-1.1-5-3.3-1-1.4-2.2-4-3.5-7.7-.7-2-1.3-3.5-1.6-4.4-.3-.9-1-2.7-1.8-5.4-.9-2.7-1.3-4.1-1.3-4.1 3.9-1 7-3.5 9.3-7.2 2.4-3.8 3.5-8.7 3.5-14.9 0-14.9-7-22.3-21-22.3-3.9 0-7.8.4-11.7 1.3.7 6.9 1 15.5 1 25.8v22.4l-.2 19.9c0 2.3.3 4 .8 4.9.5 1 1.5 1.5 3.1 1.5 1.5 0 2.7-.3 3.7-.9-1-4.7-1.5-12.1-1.5-22.2V48c0-10.9-.1-18.5-.3-22.9 2.4-.3 4.4-.4 6.1-.4 4.5 0 7.9 1.2 10.1 3.5 2.2 2.4 3.3 6.3 3.3 11.8 0 5.5-1 9.8-3 12.7-2 3-4.7 4.4-8.2 4.4-1 0-2.2-.2-3.7-.6-.3 1.3-.4 2.4-.4 3 0 1.3.7 2.2 2.2 2.5.2.4.7 2.2 1.7 5.3 1 3.1 1.7 5.2 2.1 6.4.4 1.2 1.1 3.1 2.2 5.8 1 2.7 1.9 4.7 2.6 5.9.7 1.3 1.6 2.7 2.5 4.4 1.8 3 3.8 4.5 6 4.5 3.9 0 5.9-1.4 5.9-4.3 0-.9-.2-2-.7-3.4-.9.4-1.6.6-2.2.6z"/><path fill="#A6A6A6" d="M183.6 83c0-.2-.1-.3-.1-.5v11c.3 0 .5.1.8.1.8 0 1.5-.1 2.1-.4 2.1-10.3 4.2-19.7 6.2-28.1h-5.3c-1.5 6.1-2.7 12.2-3.7 17.9zM202.1 65v14.5c-.1 4.7-.1 7.8-.1 9.2 0 1.4.3 2.6.8 3.6s1.5 1.5 3.1 1.5c1.5 0 2.7-.3 3.7-.9-1-4.7-1.5-12.1-1.5-22.2V65h-6z"/><path fill="#707070" d="M208 44.4c0-12.2.5-20.5 1.4-25-1.1-.6-2.6-.9-4.4-.9-2.4 0-4.3 1.8-5.7 5.4-3.4 8.6-6.5 18.3-9.2 29.1-1.1 4.1-2 8.1-2.9 12h5.3c3.4-14.1 6.6-25.6 9.6-34.2V65h5.9V44.4zM180.4 90.6c.5 1.7 1.5 2.6 3.1 2.8v-11c-1.6-7.1-2.9-12.9-4-17.5h-5.9c3.3 13.2 5.5 21.8 6.8 25.7zM158.9 67.4l-.2 19.9c0 2.3.3 4 .8 4.9.5 1 1.4 1.5 2.7 1.5s2.4-.3 3.3-.9c-1-4.7-1.5-12.1-1.5-22.2V65h-5.1v2.4z"/><path fill="#A6A6A6" d="M173.7 42.5c-2.1-7.3-4.2-13.5-6.2-18.6-1.5-3.6-3.4-5.4-5.6-5.4-1.4 0-2.9.3-4.5.9 1 4.8 1.5 11.4 1.5 19.7V65h5.1V31c2.7 7.9 5.8 18.8 9.3 32.7.1.5.2.9.3 1.3h5.9c-.3-1.4-.6-2.7-.9-3.9-1.2-5.1-2.8-11.3-4.9-18.6zM261.2 56.1c0 11.7-2.2 21-6.5 27.9-4.4 7-10.2 10.4-17.6 10.4-7.3 0-13.2-3.5-17.5-10.4-4.3-7-6.5-16.3-6.5-27.9 0-11.7 2.2-21 6.5-27.9 4.3-6.9 10.2-10.4 17.5-10.4 7.3 0 13.2 3.5 17.6 10.4s6.5 16.2 6.5 27.9zm-10.5-20.6c-1.3-3.3-3.1-5.9-5.5-7.9s-5-3-8.1-3c-5.4 0-9.7 2.6-12.9 7.9-3.2 5.3-4.8 12-4.8 20.1 0 8.9 1.3 16.8 3.9 23.7 1.3 3.4 3.1 6.2 5.4 8.2 2.3 2 5 3 8.1 3 5.6 0 10-2.7 13.1-8.1 3.1-5.4 4.6-12.5 4.6-21.1.1-8.6-1.2-16.2-3.8-22.8zM297.5 80c-.3-5.4-.5-14.8-.5-28.3V45c0-10.5-.2-19.2-.5-26 .9-.2 1.7-.3 2.4-.3 2.6 0 3.8 1.4 3.8 4.3 0 .4-.1 1.9-.2 4.5-.3 7.8-.5 14.7-.5 20.6v19.2c0 10.5.2 19.2.5 26-.8.3-1.7.4-2.6.4-1.8 0-3.1-1-4.1-3-2.1-4.7-5.9-13.7-11.1-27.1-5.3-13.4-9.8-24.1-13.6-32.1-.1 2.8-.1 15.9-.1 39.2 0 10.1.5 17.5 1.5 22.2-.9.6-2 .9-3.3.9-1.3 0-2.1-.5-2.7-1.5-.5-1-.8-2.6-.8-4.9l.2-19.9V45c0-12.5-.5-21-1.5-25.6 1-.6 2.1-.9 3.4-.9 1.3 0 2.2.3 2.7.8 2.2 1.9 6.2 9.7 12 23.4 6.1 13.6 11 26.1 15 37.3z"/><path fill="#A6A6A6" d="M342.2 23c0 1.9-2 7.2-6 15.9s-7.4 15.6-10.4 20.7v9.5c0 10.9.5 18.8 1.5 23.7-.9.6-2.2.9-3.7.9s-2.5-.5-3.1-1.5c-.5-1-.8-2.6-.8-4.9.1-6.9.1-13.5.2-20v-7c-7.6-20.4-13.4-32.6-17.4-36.5.8-1.5 1.4-2.5 1.7-2.9.4-.4.7-.9 1.1-1.3.6-.7 1.3-1.1 2.1-1.1 1.3 0 2.6 1.3 3.8 3.8 3.1 6.5 7.3 16.7 12.5 30.5 2.5-4.7 5.2-11 8-18.9 2.8-7.9 4.3-13.2 4.4-16 4.1.4 6.1 2.1 6.1 5.1z"/></g><path fill="#707070" stroke="#E6E6E6" stroke-width="1.017" stroke-miterlimit="10" d="M77.1 13.9l266.2-.7M77.1 98.8l266.2-.7"/></svg>